999
"DXF R12 Output" (www.mydxf.blogspot.com)
 0 
SECTION
 2 
HEADER
 9 
$ACADVER
 1 
AC1009
 9 
$EXTMIN
 10 
 0 
 20 
 0 
 9 
$EXTMAX
 10 
 8.5 
 20 
 11 
 0 
ENDSEC
 0 
SECTION
 2 
ENTITIES
0
LINE
8
Layer 1
10
3.000000
20
282.400000
11
-3.000000
21
276.400000
0
LINE
8
Layer 1
10
0.000000
20
284.400000
11
0.000000
21
274.400000
0
LINE
8
Layer 1
10
8.000000
20
275.400000
11
4.000000
21
271.400000
0
LINE
8
Layer 1
10
6.000000
20
277.400000
11
2.000000
21
273.400000
0
LINE
8
Layer 1
10
4.000000
20
279.400000
11
0.000000
21
275.400000
0
LINE
8
Grid
10
26.982400
20
261.033000
11
29.130900
21
261.033000
0
LINE
8
Grid
10
29.130900
20
261.033000
11
29.130900
21
258.882000
0
LINE
8
Grid
10
29.130900
20
258.882000
11
26.982400
21
258.882000
0
LINE
8
Grid
10
26.982400
20
258.882000
11
26.982400
21
261.033000
0
LINE
8
Grid
10
24.480500
20
261.033000
11
26.630900
21
261.033000
0
LINE
8
Grid
10
26.630900
20
261.033000
11
26.630900
21
258.882000
0
LINE
8
Grid
10
26.630900
20
258.882000
11
24.480500
21
258.882000
0
LINE
8
Grid
10
24.480500
20
258.882000
11
24.480500
21
261.033000
0
LINE
8
Grid
10
21.980500
20
261.033000
11
24.130900
21
261.033000
0
LINE
8
Grid
10
24.130900
20
261.033000
11
24.130900
21
258.882000
0
LINE
8
Grid
10
24.130900
20
258.882000
11
21.980500
21
258.882000
0
LINE
8
Grid
10
21.980500
20
258.882000
11
21.980500
21
261.033000
0
LINE
8
Grid
10
19.480500
20
261.033000
11
21.630900
21
261.033000
0
LINE
8
Grid
10
21.630900
20
261.033000
11
21.630900
21
258.882000
0
LINE
8
Grid
10
21.630900
20
258.882000
11
19.480500
21
258.882000
0
LINE
8
Grid
10
19.480500
20
258.882000
11
19.480500
21
261.033000
0
LINE
8
Grid
10
16.980500
20
261.033000
11
19.130900
21
261.033000
0
LINE
8
Grid
10
19.130900
20
261.033000
11
19.130900
21
258.882000
0
LINE
8
Grid
10
19.130900
20
258.882000
11
16.980500
21
258.882000
0
LINE
8
Grid
10
16.980500
20
258.882000
11
16.980500
21
261.033000
0
LINE
8
Grid
10
10.980500
20
261.033000
11
13.130900
21
261.033000
0
LINE
8
Grid
10
13.130900
20
261.033000
11
13.130900
21
258.882000
0
LINE
8
Grid
10
13.130900
20
258.882000
11
10.980500
21
258.882000
0
LINE
8
Grid
10
10.980500
20
258.882000
11
10.980500
21
261.033000
0
LINE
8
Grid
10
8.480470
20
261.033000
11
10.630900
21
261.033000
0
LINE
8
Grid
10
10.630900
20
261.033000
11
10.630900
21
258.882000
0
LINE
8
Grid
10
10.630900
20
258.882000
11
8.480470
21
258.882000
0
LINE
8
Grid
10
8.480470
20
258.882000
11
8.480470
21
261.033000
0
LINE
8
Grid
10
5.980470
20
261.033000
11
8.130860
21
261.033000
0
LINE
8
Grid
10
8.130860
20
261.033000
11
8.130860
21
258.882000
0
LINE
8
Grid
10
8.130860
20
258.882000
11
5.980470
21
258.882000
0
LINE
8
Grid
10
5.980470
20
258.882000
11
5.980470
21
261.033000
0
LINE
8
Grid
10
3.480470
20
261.033000
11
5.630860
21
261.033000
0
LINE
8
Grid
10
5.630860
20
261.033000
11
5.630860
21
258.882000
0
LINE
8
Grid
10
5.630860
20
258.882000
11
3.480470
21
258.882000
0
LINE
8
Grid
10
3.480470
20
258.882000
11
3.480470
21
261.033000
0
LINE
8
Grid
10
0.980469
20
261.033000
11
3.130860
21
261.033000
0
LINE
8
Grid
10
3.130860
20
261.033000
11
3.130860
21
258.882000
0
LINE
8
Grid
10
3.130860
20
258.882000
11
0.980469
21
258.882000
0
LINE
8
Grid
10
0.980469
20
258.882000
11
0.980469
21
261.033000
0
LINE
8
Grid
10
26.982400
20
263.531000
11
29.130900
21
263.531000
0
LINE
8
Grid
10
29.130900
20
263.531000
11
29.130900
21
261.382000
0
LINE
8
Grid
10
29.130900
20
261.382000
11
26.982400
21
261.382000
0
LINE
8
Grid
10
26.982400
20
261.382000
11
26.982400
21
263.531000
0
LINE
8
Grid
10
24.480500
20
263.531000
11
26.630900
21
263.531000
0
LINE
8
Grid
10
26.630900
20
263.531000
11
26.630900
21
261.382000
0
LINE
8
Grid
10
26.630900
20
261.382000
11
24.480500
21
261.382000
0
LINE
8
Grid
10
24.480500
20
261.382000
11
24.480500
21
263.531000
0
LINE
8
Grid
10
21.980500
20
263.531000
11
24.130900
21
263.531000
0
LINE
8
Grid
10
24.130900
20
263.531000
11
24.130900
21
261.382000
0
LINE
8
Grid
10
24.130900
20
261.382000
11
21.980500
21
261.382000
0
LINE
8
Grid
10
21.980500
20
261.382000
11
21.980500
21
263.531000
0
LINE
8
Grid
10
19.480500
20
263.531000
11
21.630900
21
263.531000
0
LINE
8
Grid
10
21.630900
20
263.531000
11
21.630900
21
261.382000
0
LINE
8
Grid
10
21.630900
20
261.382000
11
19.480500
21
261.382000
0
LINE
8
Grid
10
19.480500
20
261.382000
11
19.480500
21
263.531000
0
LINE
8
Grid
10
16.980500
20
263.531000
11
19.130900
21
263.531000
0
LINE
8
Grid
10
19.130900
20
263.531000
11
19.130900
21
261.382000
0
LINE
8
Grid
10
19.130900
20
261.382000
11
16.980500
21
261.382000
0
LINE
8
Grid
10
16.980500
20
261.382000
11
16.980500
21
263.531000
0
LINE
8
Grid
10
10.980500
20
263.531000
11
13.130900
21
263.531000
0
LINE
8
Grid
10
13.130900
20
263.531000
11
13.130900
21
261.382000
0
LINE
8
Grid
10
13.130900
20
261.382000
11
10.980500
21
261.382000
0
LINE
8
Grid
10
10.980500
20
261.382000
11
10.980500
21
263.531000
0
LINE
8
Grid
10
8.480470
20
263.531000
11
10.630900
21
263.531000
0
LINE
8
Grid
10
10.630900
20
263.531000
11
10.630900
21
261.382000
0
LINE
8
Grid
10
10.630900
20
261.382000
11
8.480470
21
261.382000
0
LINE
8
Grid
10
8.480470
20
261.382000
11
8.480470
21
263.531000
0
LINE
8
Grid
10
5.980470
20
263.531000
11
8.130860
21
263.531000
0
LINE
8
Grid
10
8.130860
20
263.531000
11
8.130860
21
261.382000
0
LINE
8
Grid
10
8.130860
20
261.382000
11
5.980470
21
261.382000
0
LINE
8
Grid
10
5.980470
20
261.382000
11
5.980470
21
263.531000
0
LINE
8
Grid
10
3.480470
20
263.531000
11
5.630860
21
263.531000
0
LINE
8
Grid
10
5.630860
20
263.531000
11
5.630860
21
261.382000
0
LINE
8
Grid
10
5.630860
20
261.382000
11
3.480470
21
261.382000
0
LINE
8
Grid
10
3.480470
20
261.382000
11
3.480470
21
263.531000
0
LINE
8
Grid
10
0.980469
20
263.531000
11
3.130860
21
263.531000
0
LINE
8
Grid
10
3.130860
20
263.531000
11
3.130860
21
261.382000
0
LINE
8
Grid
10
3.130860
20
261.382000
11
0.980469
21
261.382000
0
LINE
8
Grid
10
0.980469
20
261.382000
11
0.980469
21
263.531000
0
LINE
8
Grid
10
26.982400
20
266.031000
11
29.130900
21
266.031000
0
LINE
8
Grid
10
29.130900
20
266.031000
11
29.130900
21
263.880000
0
LINE
8
Grid
10
29.130900
20
263.880000
11
26.982400
21
263.880000
0
LINE
8
Grid
10
26.982400
20
263.880000
11
26.982400
21
266.031000
0
LINE
8
Grid
10
24.480500
20
266.031000
11
26.630900
21
266.031000
0
LINE
8
Grid
10
26.630900
20
266.031000
11
26.630900
21
263.880000
0
LINE
8
Grid
10
26.630900
20
263.880000
11
24.480500
21
263.880000
0
LINE
8
Grid
10
24.480500
20
263.880000
11
24.480500
21
266.031000
0
LINE
8
Grid
10
21.980500
20
266.031000
11
24.130900
21
266.031000
0
LINE
8
Grid
10
24.130900
20
266.031000
11
24.130900
21
263.880000
0
LINE
8
Grid
10
24.130900
20
263.880000
11
21.980500
21
263.880000
0
LINE
8
Grid
10
21.980500
20
263.880000
11
21.980500
21
266.031000
0
LINE
8
Grid
10
19.480500
20
266.031000
11
21.630900
21
266.031000
0
LINE
8
Grid
10
21.630900
20
266.031000
11
21.630900
21
263.880000
0
LINE
8
Grid
10
21.630900
20
263.880000
11
19.480500
21
263.880000
0
LINE
8
Grid
10
19.480500
20
263.880000
11
19.480500
21
266.031000
0
LINE
8
Grid
10
16.980500
20
266.031000
11
19.130900
21
266.031000
0
LINE
8
Grid
10
19.130900
20
266.031000
11
19.130900
21
263.880000
0
LINE
8
Grid
10
19.130900
20
263.880000
11
16.980500
21
263.880000
0
LINE
8
Grid
10
16.980500
20
263.880000
11
16.980500
21
266.031000
0
LINE
8
Grid
10
10.980500
20
266.031000
11
13.130900
21
266.031000
0
LINE
8
Grid
10
13.130900
20
266.031000
11
13.130900
21
263.880000
0
LINE
8
Grid
10
13.130900
20
263.880000
11
10.980500
21
263.880000
0
LINE
8
Grid
10
10.980500
20
263.880000
11
10.980500
21
266.031000
0
LINE
8
Grid
10
8.480470
20
266.031000
11
10.630900
21
266.031000
0
LINE
8
Grid
10
10.630900
20
266.031000
11
10.630900
21
263.880000
0
LINE
8
Grid
10
10.630900
20
263.880000
11
8.480470
21
263.880000
0
LINE
8
Grid
10
8.480470
20
263.880000
11
8.480470
21
266.031000
0
LINE
8
Grid
10
5.980470
20
266.031000
11
8.130860
21
266.031000
0
LINE
8
Grid
10
8.130860
20
266.031000
11
8.130860
21
263.880000
0
LINE
8
Grid
10
8.130860
20
263.880000
11
5.980470
21
263.880000
0
LINE
8
Grid
10
5.980470
20
263.880000
11
5.980470
21
266.031000
0
LINE
8
Grid
10
3.480470
20
266.031000
11
5.630860
21
266.031000
0
LINE
8
Grid
10
5.630860
20
266.031000
11
5.630860
21
263.880000
0
LINE
8
Grid
10
5.630860
20
263.880000
11
3.480470
21
263.880000
0
LINE
8
Grid
10
3.480470
20
263.880000
11
3.480470
21
266.031000
0
LINE
8
Grid
10
0.980469
20
266.031000
11
3.130860
21
266.031000
0
LINE
8
Grid
10
3.130860
20
266.031000
11
3.130860
21
263.880000
0
LINE
8
Grid
10
3.130860
20
263.880000
11
0.980469
21
263.880000
0
LINE
8
Grid
10
0.980469
20
263.880000
11
0.980469
21
266.031000
0
LINE
8
Grid
10
26.982400
20
268.531000
11
29.130900
21
268.531000
0
LINE
8
Grid
10
29.130900
20
268.531000
11
29.130900
21
266.380000
0
LINE
8
Grid
10
29.130900
20
266.380000
11
26.982400
21
266.380000
0
LINE
8
Grid
10
26.982400
20
266.380000
11
26.982400
21
268.531000
0
LINE
8
Grid
10
24.480500
20
268.531000
11
26.630900
21
268.531000
0
LINE
8
Grid
10
26.630900
20
268.531000
11
26.630900
21
266.380000
0
LINE
8
Grid
10
26.630900
20
266.380000
11
24.480500
21
266.380000
0
LINE
8
Grid
10
24.480500
20
266.380000
11
24.480500
21
268.531000
0
LINE
8
Grid
10
21.980500
20
268.531000
11
24.130900
21
268.531000
0
LINE
8
Grid
10
24.130900
20
268.531000
11
24.130900
21
266.380000
0
LINE
8
Grid
10
24.130900
20
266.380000
11
21.980500
21
266.380000
0
LINE
8
Grid
10
21.980500
20
266.380000
11
21.980500
21
268.531000
0
LINE
8
Grid
10
19.480500
20
268.531000
11
21.630900
21
268.531000
0
LINE
8
Grid
10
21.630900
20
268.531000
11
21.630900
21
266.380000
0
LINE
8
Grid
10
21.630900
20
266.380000
11
19.480500
21
266.380000
0
LINE
8
Grid
10
19.480500
20
266.380000
11
19.480500
21
268.531000
0
LINE
8
Grid
10
16.980500
20
268.531000
11
19.130900
21
268.531000
0
LINE
8
Grid
10
19.130900
20
268.531000
11
19.130900
21
266.380000
0
LINE
8
Grid
10
19.130900
20
266.380000
11
16.980500
21
266.380000
0
LINE
8
Grid
10
16.980500
20
266.380000
11
16.980500
21
268.531000
0
LINE
8
Grid
10
10.980500
20
268.531000
11
13.130900
21
268.531000
0
LINE
8
Grid
10
13.130900
20
268.531000
11
13.130900
21
266.380000
0
LINE
8
Grid
10
13.130900
20
266.380000
11
10.980500
21
266.380000
0
LINE
8
Grid
10
10.980500
20
266.380000
11
10.980500
21
268.531000
0
LINE
8
Grid
10
8.480470
20
268.531000
11
10.630900
21
268.531000
0
LINE
8
Grid
10
10.630900
20
268.531000
11
10.630900
21
266.380000
0
LINE
8
Grid
10
10.630900
20
266.380000
11
8.480470
21
266.380000
0
LINE
8
Grid
10
8.480470
20
266.380000
11
8.480470
21
268.531000
0
LINE
8
Grid
10
5.980470
20
268.531000
11
8.130860
21
268.531000
0
LINE
8
Grid
10
8.130860
20
268.531000
11
8.130860
21
266.380000
0
LINE
8
Grid
10
8.130860
20
266.380000
11
5.980470
21
266.380000
0
LINE
8
Grid
10
5.980470
20
266.380000
11
5.980470
21
268.531000
0
LINE
8
Grid
10
3.480470
20
268.531000
11
5.630860
21
268.531000
0
LINE
8
Grid
10
5.630860
20
268.531000
11
5.630860
21
266.380000
0
LINE
8
Grid
10
5.630860
20
266.380000
11
3.480470
21
266.380000
0
LINE
8
Grid
10
3.480470
20
266.380000
11
3.480470
21
268.531000
0
LINE
8
Grid
10
0.980469
20
268.531000
11
3.130860
21
268.531000
0
LINE
8
Grid
10
3.130860
20
268.531000
11
3.130860
21
266.380000
0
LINE
8
Grid
10
3.130860
20
266.380000
11
0.980469
21
266.380000
0
LINE
8
Grid
10
0.980469
20
266.380000
11
0.980469
21
268.531000
0
LINE
8
Grid
10
26.982400
20
271.031000
11
29.130900
21
271.031000
0
LINE
8
Grid
10
29.130900
20
271.031000
11
29.130900
21
268.880000
0
LINE
8
Grid
10
29.130900
20
268.880000
11
26.982400
21
268.880000
0
LINE
8
Grid
10
26.982400
20
268.880000
11
26.982400
21
271.031000
0
LINE
8
Grid
10
24.480500
20
271.031000
11
26.630900
21
271.031000
0
LINE
8
Grid
10
26.630900
20
271.031000
11
26.630900
21
268.880000
0
LINE
8
Grid
10
26.630900
20
268.880000
11
24.480500
21
268.880000
0
LINE
8
Grid
10
24.480500
20
268.880000
11
24.480500
21
271.031000
0
LINE
8
Grid
10
21.980500
20
271.031000
11
24.130900
21
271.031000
0
LINE
8
Grid
10
24.130900
20
271.031000
11
24.130900
21
268.880000
0
LINE
8
Grid
10
24.130900
20
268.880000
11
21.980500
21
268.880000
0
LINE
8
Grid
10
21.980500
20
268.880000
11
21.980500
21
271.031000
0
LINE
8
Grid
10
19.480500
20
271.031000
11
21.630900
21
271.031000
0
LINE
8
Grid
10
21.630900
20
271.031000
11
21.630900
21
268.880000
0
LINE
8
Grid
10
21.630900
20
268.880000
11
19.480500
21
268.880000
0
LINE
8
Grid
10
19.480500
20
268.880000
11
19.480500
21
271.031000
0
LINE
8
Grid
10
16.980500
20
271.031000
11
19.130900
21
271.031000
0
LINE
8
Grid
10
19.130900
20
271.031000
11
19.130900
21
268.880000
0
LINE
8
Grid
10
19.130900
20
268.880000
11
16.980500
21
268.880000
0
LINE
8
Grid
10
16.980500
20
268.880000
11
16.980500
21
271.031000
0
LINE
8
Grid
10
10.980500
20
271.031000
11
13.130900
21
271.031000
0
LINE
8
Grid
10
13.130900
20
271.031000
11
13.130900
21
268.880000
0
LINE
8
Grid
10
13.130900
20
268.880000
11
10.980500
21
268.880000
0
LINE
8
Grid
10
10.980500
20
268.880000
11
10.980500
21
271.031000
0
LINE
8
Grid
10
8.480470
20
271.031000
11
10.630900
21
271.031000
0
LINE
8
Grid
10
10.630900
20
271.031000
11
10.630900
21
268.880000
0
LINE
8
Grid
10
10.630900
20
268.880000
11
8.480470
21
268.880000
0
LINE
8
Grid
10
8.480470
20
268.880000
11
8.480470
21
271.031000
0
LINE
8
Grid
10
5.980470
20
271.031000
11
8.130860
21
271.031000
0
LINE
8
Grid
10
8.130860
20
271.031000
11
8.130860
21
268.880000
0
LINE
8
Grid
10
8.130860
20
268.880000
11
5.980470
21
268.880000
0
LINE
8
Grid
10
5.980470
20
268.880000
11
5.980470
21
271.031000
0
LINE
8
Grid
10
3.480470
20
271.031000
11
5.630860
21
271.031000
0
LINE
8
Grid
10
5.630860
20
271.031000
11
5.630860
21
268.880000
0
LINE
8
Grid
10
5.630860
20
268.880000
11
3.480470
21
268.880000
0
LINE
8
Grid
10
3.480470
20
268.880000
11
3.480470
21
271.031000
0
LINE
8
Grid
10
0.980469
20
271.031000
11
3.130860
21
271.031000
0
LINE
8
Grid
10
3.130860
20
271.031000
11
3.130860
21
268.880000
0
LINE
8
Grid
10
3.130860
20
268.880000
11
0.980469
21
268.880000
0
LINE
8
Grid
10
0.980469
20
268.880000
11
0.980469
21
271.031000
0
LINE
8
Grid
10
26.982400
20
273.531000
11
29.130900
21
273.531000
0
LINE
8
Grid
10
29.130900
20
273.531000
11
29.130900
21
271.380000
0
LINE
8
Grid
10
29.130900
20
271.380000
11
26.982400
21
271.380000
0
LINE
8
Grid
10
26.982400
20
271.380000
11
26.982400
21
273.531000
0
LINE
8
Grid
10
24.480500
20
273.531000
11
26.630900
21
273.531000
0
LINE
8
Grid
10
26.630900
20
273.531000
11
26.630900
21
271.380000
0
LINE
8
Grid
10
26.630900
20
271.380000
11
24.480500
21
271.380000
0
LINE
8
Grid
10
24.480500
20
271.380000
11
24.480500
21
273.531000
0
LINE
8
Grid
10
21.980500
20
273.531000
11
24.130900
21
273.531000
0
LINE
8
Grid
10
24.130900
20
273.531000
11
24.130900
21
271.380000
0
LINE
8
Grid
10
24.130900
20
271.380000
11
21.980500
21
271.380000
0
LINE
8
Grid
10
21.980500
20
271.380000
11
21.980500
21
273.531000
0
LINE
8
Grid
10
19.480500
20
273.531000
11
21.630900
21
273.531000
0
LINE
8
Grid
10
21.630900
20
273.531000
11
21.630900
21
271.380000
0
LINE
8
Grid
10
21.630900
20
271.380000
11
19.480500
21
271.380000
0
LINE
8
Grid
10
19.480500
20
271.380000
11
19.480500
21
273.531000
0
LINE
8
Grid
10
16.980500
20
273.531000
11
19.130900
21
273.531000
0
LINE
8
Grid
10
19.130900
20
273.531000
11
19.130900
21
271.380000
0
LINE
8
Grid
10
19.130900
20
271.380000
11
16.980500
21
271.380000
0
LINE
8
Grid
10
16.980500
20
271.380000
11
16.980500
21
273.531000
0
LINE
8
Grid
10
10.980500
20
273.531000
11
13.130900
21
273.531000
0
LINE
8
Grid
10
13.130900
20
273.531000
11
13.130900
21
271.380000
0
LINE
8
Grid
10
13.130900
20
271.380000
11
10.980500
21
271.380000
0
LINE
8
Grid
10
10.980500
20
271.380000
11
10.980500
21
273.531000
0
LINE
8
Grid
10
8.480470
20
273.531000
11
10.630900
21
273.531000
0
LINE
8
Grid
10
10.630900
20
273.531000
11
10.630900
21
271.380000
0
LINE
8
Grid
10
10.630900
20
271.380000
11
8.480470
21
271.380000
0
LINE
8
Grid
10
8.480470
20
271.380000
11
8.480470
21
273.531000
0
LINE
8
Grid
10
5.980470
20
273.531000
11
8.130860
21
273.531000
0
LINE
8
Grid
10
8.130860
20
273.531000
11
8.130860
21
271.380000
0
LINE
8
Grid
10
8.130860
20
271.380000
11
5.980470
21
271.380000
0
LINE
8
Grid
10
5.980470
20
271.380000
11
5.980470
21
273.531000
0
LINE
8
Grid
10
3.480470
20
273.531000
11
5.630860
21
273.531000
0
LINE
8
Grid
10
5.630860
20
273.531000
11
5.630860
21
271.380000
0
LINE
8
Grid
10
5.630860
20
271.380000
11
3.480470
21
271.380000
0
LINE
8
Grid
10
3.480470
20
271.380000
11
3.480470
21
273.531000
0
LINE
8
Grid
10
0.980469
20
273.531000
11
3.130860
21
273.531000
0
LINE
8
Grid
10
3.130860
20
273.531000
11
3.130860
21
271.380000
0
LINE
8
Grid
10
3.130860
20
271.380000
11
0.980469
21
271.380000
0
LINE
8
Grid
10
0.980469
20
271.380000
11
0.980469
21
273.531000
0
LINE
8
Grid
10
26.982400
20
276.031000
11
29.130900
21
276.031000
0
LINE
8
Grid
10
29.130900
20
276.031000
11
29.130900
21
273.880000
0
LINE
8
Grid
10
29.130900
20
273.880000
11
26.982400
21
273.880000
0
LINE
8
Grid
10
26.982400
20
273.880000
11
26.982400
21
276.031000
0
LINE
8
Grid
10
24.480500
20
276.031000
11
26.630900
21
276.031000
0
LINE
8
Grid
10
26.630900
20
276.031000
11
26.630900
21
273.880000
0
LINE
8
Grid
10
26.630900
20
273.880000
11
24.480500
21
273.880000
0
LINE
8
Grid
10
24.480500
20
273.880000
11
24.480500
21
276.031000
0
LINE
8
Grid
10
21.980500
20
276.031000
11
24.130900
21
276.031000
0
LINE
8
Grid
10
24.130900
20
276.031000
11
24.130900
21
273.880000
0
LINE
8
Grid
10
24.130900
20
273.880000
11
21.980500
21
273.880000
0
LINE
8
Grid
10
21.980500
20
273.880000
11
21.980500
21
276.031000
0
LINE
8
Grid
10
19.480500
20
276.031000
11
21.630900
21
276.031000
0
LINE
8
Grid
10
21.630900
20
276.031000
11
21.630900
21
273.880000
0
LINE
8
Grid
10
21.630900
20
273.880000
11
19.480500
21
273.880000
0
LINE
8
Grid
10
19.480500
20
273.880000
11
19.480500
21
276.031000
0
LINE
8
Grid
10
16.980500
20
276.031000
11
19.130900
21
276.031000
0
LINE
8
Grid
10
19.130900
20
276.031000
11
19.130900
21
273.880000
0
LINE
8
Grid
10
19.130900
20
273.880000
11
16.980500
21
273.880000
0
LINE
8
Grid
10
16.980500
20
273.880000
11
16.980500
21
276.031000
0
LINE
8
Grid
10
10.980500
20
276.031000
11
13.130900
21
276.031000
0
LINE
8
Grid
10
13.130900
20
276.031000
11
13.130900
21
273.880000
0
LINE
8
Grid
10
13.130900
20
273.880000
11
10.980500
21
273.880000
0
LINE
8
Grid
10
10.980500
20
273.880000
11
10.980500
21
276.031000
0
LINE
8
Grid
10
8.480470
20
276.031000
11
10.630900
21
276.031000
0
LINE
8
Grid
10
10.630900
20
276.031000
11
10.630900
21
273.880000
0
LINE
8
Grid
10
10.630900
20
273.880000
11
8.480470
21
273.880000
0
LINE
8
Grid
10
8.480470
20
273.880000
11
8.480470
21
276.031000
0
LINE
8
Grid
10
5.980470
20
276.031000
11
8.130860
21
276.031000
0
LINE
8
Grid
10
8.130860
20
276.031000
11
8.130860
21
273.880000
0
LINE
8
Grid
10
8.130860
20
273.880000
11
5.980470
21
273.880000
0
LINE
8
Grid
10
5.980470
20
273.880000
11
5.980470
21
276.031000
0
LINE
8
Grid
10
3.480470
20
276.031000
11
5.630860
21
276.031000
0
LINE
8
Grid
10
5.630860
20
276.031000
11
5.630860
21
273.880000
0
LINE
8
Grid
10
5.630860
20
273.880000
11
3.480470
21
273.880000
0
LINE
8
Grid
10
3.480470
20
273.880000
11
3.480470
21
276.031000
0
LINE
8
Grid
10
0.980469
20
276.031000
11
3.130860
21
276.031000
0
LINE
8
Grid
10
3.130860
20
276.031000
11
3.130860
21
273.880000
0
LINE
8
Grid
10
3.130860
20
273.880000
11
0.980469
21
273.880000
0
LINE
8
Grid
10
0.980469
20
273.880000
11
0.980469
21
276.031000
0
LINE
8
Outline
10
30.000000
20
279.400000
11
0.000000
21
279.400000
0
LINE
8
Outline
10
0.000000
20
279.400000
11
0.000000
21
255.400000
0
LINE
8
Outline
10
0.000000
20
255.400000
11
30.000000
21
255.400000
0
LINE
8
Outline
10
30.000000
20
255.400000
11
30.000000
21
279.400000
 0 
ENDSEC
 0 
EOF