999
"DXF R12 Output" (www.mydxf.blogspot.com)
 0 
SECTION
 2 
HEADER
 9 
$ACADVER
 1 
AC1009
 9 
$EXTMIN
 10 
 0 
 20 
 0 
 9 
$EXTMAX
 10 
 8.5 
 20 
 11 
 0 
ENDSEC
 0 
SECTION
 2 
ENTITIES
0
LINE
8
Layer 1
10
0.846666
20
32.063300
11
-0.846666
21
30.369900
0
LINE
8
Layer 1
10
0.000000
20
32.627700
11
0.000000
21
29.805500
0
LINE
8
Layer 1
10
2.257780
20
30.087700
11
1.128890
21
28.958810
0
LINE
8
Layer 1
10
1.693330
20
30.652200
11
0.564440
21
29.523310
0
LINE
8
Layer 1
10
1.128890
20
31.216600
11
0.000000
21
30.087710
0
LINE
8
0
10
0.312419
20
-259.229000
11
0.170604
21
-258.694286
0
LINE
8
0
10
0.170604
20
-258.694286
11
-0.219968
21
-258.302516
0
LINE
8
0
10
-0.219968
20
-258.302516
11
-0.754246
21
-258.159064
0
LINE
8
0
10
-0.754246
20
-258.159064
11
-1.288524
21
-258.302516
0
LINE
8
0
10
-1.288524
20
-258.302516
11
-1.679096
21
-258.694286
0
LINE
8
0
10
-1.679096
20
-258.694286
11
-1.820911
21
-259.229000
0
LINE
8
0
10
-1.820911
20
-259.229000
11
-1.679096
21
-259.763714
0
LINE
8
0
10
-1.679096
20
-259.763714
11
-1.288524
21
-260.155484
0
LINE
8
0
10
-1.288524
20
-260.155484
11
-0.754246
21
-260.298936
0
LINE
8
0
10
-0.754246
20
-260.298936
11
-0.219968
21
-260.155484
0
LINE
8
0
10
-0.219968
20
-260.155484
11
0.170604
21
-259.763714
0
LINE
8
0
10
0.170604
20
-259.763714
11
0.312419
21
-259.229000
0
LINE
8
0
10
0.312419
20
-259.229000
11
0.312419
21
-259.229000
0
LINE
8
0
10
0.312419
20
-286.337000
11
0.170604
21
-285.802286
0
LINE
8
0
10
0.170604
20
-285.802286
11
-0.219968
21
-285.410516
0
LINE
8
0
10
-0.219968
20
-285.410516
11
-0.754246
21
-285.267064
0
LINE
8
0
10
-0.754246
20
-285.267064
11
-1.288524
21
-285.410516
0
LINE
8
0
10
-1.288524
20
-285.410516
11
-1.679096
21
-285.802286
0
LINE
8
0
10
-1.679096
20
-285.802286
11
-1.820911
21
-286.337000
0
LINE
8
0
10
-1.820911
20
-286.337000
11
-1.679096
21
-286.871714
0
LINE
8
0
10
-1.679096
20
-286.871714
11
-1.288524
21
-287.263484
0
LINE
8
0
10
-1.288524
20
-287.263484
11
-0.754246
21
-287.406936
0
LINE
8
0
10
-0.754246
20
-287.406936
11
-0.219968
21
-287.263484
0
LINE
8
0
10
-0.219968
20
-287.263484
11
0.170604
21
-286.871714
0
LINE
8
0
10
0.170604
20
-286.871714
11
0.312419
21
-286.337000
0
LINE
8
0
10
0.312419
20
-286.337000
11
0.312419
21
-286.337000
0
LINE
8
0
10
33.820900
20
-286.337000
11
33.679085
21
-285.802286
0
LINE
8
0
10
33.679085
20
-285.802286
11
33.288513
21
-285.410516
0
LINE
8
0
10
33.288513
20
-285.410516
11
32.754235
21
-285.267064
0
LINE
8
0
10
32.754235
20
-285.267064
11
32.219957
21
-285.410516
0
LINE
8
0
10
32.219957
20
-285.410516
11
31.829385
21
-285.802286
0
LINE
8
0
10
31.829385
20
-285.802286
11
31.687570
21
-286.337000
0
LINE
8
0
10
31.687570
20
-286.337000
11
31.829385
21
-286.871714
0
LINE
8
0
10
31.829385
20
-286.871714
11
32.219957
21
-287.263484
0
LINE
8
0
10
32.219957
20
-287.263484
11
32.754235
21
-287.406936
0
LINE
8
0
10
32.754235
20
-287.406936
11
33.288513
21
-287.263484
0
LINE
8
0
10
33.288513
20
-287.263484
11
33.679085
21
-286.871714
0
LINE
8
0
10
33.679085
20
-286.871714
11
33.820900
21
-286.337000
0
LINE
8
0
10
33.820900
20
-286.337000
11
33.820900
21
-286.337000
0
LINE
8
0
10
33.820900
20
-259.229000
11
33.679085
21
-258.694286
0
LINE
8
0
10
33.679085
20
-258.694286
11
33.288513
21
-258.302516
0
LINE
8
0
10
33.288513
20
-258.302516
11
32.754235
21
-258.159064
0
LINE
8
0
10
32.754235
20
-258.159064
11
32.219957
21
-258.302516
0
LINE
8
0
10
32.219957
20
-258.302516
11
31.829385
21
-258.694286
0
LINE
8
0
10
31.829385
20
-258.694286
11
31.687570
21
-259.229000
0
LINE
8
0
10
31.687570
20
-259.229000
11
31.829385
21
-259.763714
0
LINE
8
0
10
31.829385
20
-259.763714
11
32.219957
21
-260.155484
0
LINE
8
0
10
32.219957
20
-260.155484
11
32.754235
21
-260.298936
0
LINE
8
0
10
32.754235
20
-260.298936
11
33.288513
21
-260.155484
0
LINE
8
0
10
33.288513
20
-260.155484
11
33.679085
21
-259.763714
0
LINE
8
0
10
33.679085
20
-259.763714
11
33.820900
21
-259.229000
0
LINE
8
0
10
33.820900
20
-259.229000
11
33.820900
21
-259.229000
0
LINE
8
0
10
-0.533333
20
-257.317000
11
-1.349725
21
-257.479391
0
LINE
8
0
10
-1.349725
20
-257.479391
11
-2.041829
21
-257.941841
0
LINE
8
0
10
-2.041829
20
-257.941841
11
-2.504276
21
-258.633947
0
LINE
8
0
10
-2.504276
20
-258.633947
11
-2.666663
21
-259.450340
0
LINE
8
0
10
-0.533332
20
-257.316000
11
32.533400
21
-257.316000
0
LINE
8
0
10
34.666600
20
-259.450000
11
34.504213
21
-258.633607
0
LINE
8
0
10
34.504213
20
-258.633607
11
34.041766
21
-257.941501
0
LINE
8
0
10
34.041766
20
-257.941501
11
33.349662
21
-257.479051
0
LINE
8
0
10
33.349662
20
-257.479051
11
32.533270
21
-257.316660
0
LINE
8
0
10
34.666700
20
-259.449000
11
34.666700
21
-286.117000
0
LINE
8
0
10
32.533300
20
-288.250000
11
33.349692
21
-288.087609
0
LINE
8
0
10
33.349692
20
-288.087609
11
34.041796
21
-287.625159
0
LINE
8
0
10
34.041796
20
-287.625159
11
34.504243
21
-286.933053
0
LINE
8
0
10
34.504243
20
-286.933053
11
34.666630
21
-286.116660
0
LINE
8
0
10
32.533400
20
-288.250000
11
-0.533332
21
-288.250000
0
LINE
8
0
10
-2.666660
20
-286.116000
11
-2.504273
21
-286.932393
0
LINE
8
0
10
-2.504273
20
-286.932393
11
-2.041826
21
-287.624499
0
LINE
8
0
10
-2.041826
20
-287.624499
11
-1.349722
21
-288.086949
0
LINE
8
0
10
-1.349722
20
-288.086949
11
-0.533330
21
-288.249340
0
LINE
8
0
10
-2.666660
20
-286.117000
11
-2.666660
21
-259.449000
 0 
ENDSEC
 0 
EOF