<?xml version="1.0" encoding="UTF-8" standalone="no"?>
<svg
   viewBox="0 0 132.28381 109.61"
   width="132.28381"
   height="109.61"
   version="1.1"
   id="svg863"
   sodipodi:docname="Pixie Chroma Acrylic Front.svg"
   inkscape:version="1.1.2 (b8e25be8, 2022-02-05)"
   xmlns:inkscape="http://www.inkscape.org/namespaces/inkscape"
   xmlns:sodipodi="http://sodipodi.sourceforge.net/DTD/sodipodi-0.dtd"
   xmlns="http://www.w3.org/2000/svg"
   xmlns:svg="http://www.w3.org/2000/svg">
  <sodipodi:namedview
     id="namedview865"
     pagecolor="#ffffff"
     bordercolor="#666666"
     borderopacity="1.0"
     inkscape:pageshadow="2"
     inkscape:pageopacity="0.0"
     inkscape:pagecheckerboard="0"
     showgrid="false"
     fit-margin-top="0"
     fit-margin-left="0"
     fit-margin-right="0"
     fit-margin-bottom="0"
     inkscape:zoom="7.3902447"
     inkscape:cx="63.394383"
     inkscape:cy="54.734318"
     inkscape:window-width="1792"
     inkscape:window-height="1067"
     inkscape:window-x="-1"
     inkscape:window-y="25"
     inkscape:window-maximized="0"
     inkscape:current-layer="g861" />
  <desc
     id="desc821">Pixie Chroma Acrylic Front.dxf - scale = 1.0, origin = (0.0, 0.0), method = manual</desc>
  <defs
     id="defs835">
    <marker
       id="DistanceX"
       orient="auto"
       refX="0"
       refY="0"
       style="overflow:visible">
      <path
         d="M 3,-3 -3,3 M 0,-5 V 5"
         style="stroke:#000000;stroke-width:0.5"
         id="path823" />
    </marker>
    <pattern
       id="Hatch"
       patternUnits="userSpaceOnUse"
       width="8"
       height="8"
       x="0"
       y="0">
      <path
         d="M8 4 l-4,4"
         stroke="#000000"
         stroke-width="0.25"
         linecap="square"
         id="path826" />
      <path
         d="M6 2 l-4,4"
         stroke="#000000"
         stroke-width="0.25"
         linecap="square"
         id="path828" />
      <path
         d="M4 0 l-4,4"
         stroke="#000000"
         stroke-width="0.25"
         linecap="square"
         id="path830" />
    </pattern>
    <symbol
       id="*MODEL_SPACE" />
    <symbol
       id="*PAPER_SPACE" />
  </defs>
  <g
     inkscape:groupmode="layer"
     inkscape:label="0"
     id="g861"
     transform="translate(9.44882,-1022.36)">
    <path
       d="m 1.106998,1029.1385 a 3.779528,3.779528 0 1 0 -7.559055,0 3.779528,3.779528 0 1 0 7.559055,0 z"
       style="vector-effect:non-scaling-stroke;fill:none;stroke:#000000;stroke-width:0.0100158;stroke-miterlimit:4;stroke-dasharray:none;-inkscape-stroke:hairline"
       id="path837" />
    <path
       d="m 1.106998,1125.1922 a 3.779528,3.779528 0 1 0 -7.559055,0 3.779528,3.779528 0 1 0 7.559055,0 z"
       style="vector-effect:non-scaling-stroke;fill:none;stroke:#000000;stroke-width:0.0100158;stroke-miterlimit:4;stroke-dasharray:none;-inkscape-stroke:hairline"
       id="path839" />
    <path
       d="m 119.83788,1125.1922 a 3.779528,3.779528 0 1 0 -7.55905,0 3.779528,3.779528 0 1 0 7.55905,0 z"
       style="vector-effect:non-scaling-stroke;fill:none;stroke:#000000;stroke-width:0.0100158;stroke-miterlimit:4;stroke-dasharray:none;-inkscape-stroke:hairline"
       id="path841" />
    <path
       d="m 119.83788,1029.1385 a 3.779528,3.779528 0 1 0 -7.55905,0 3.779528,3.779528 0 1 0 7.55905,0 z"
       style="vector-effect:non-scaling-stroke;fill:none;stroke:#000000;stroke-width:0.0100158;stroke-miterlimit:4;stroke-dasharray:none;-inkscape-stroke:hairline"
       id="path843" />
    <path
       d="m -1.889764,1022.3622 a 7.559055,7.559055 0 0 0 -7.559055,7.5591"
       style="vector-effect:non-scaling-stroke;fill:none;stroke:#000000;stroke-width:0.0100158;stroke-miterlimit:4;stroke-dasharray:none;-inkscape-stroke:hairline"
       id="path845" />
    <path
       style="vector-effect:non-scaling-stroke;fill:none;stroke:#000000;stroke-width:0.0100158;stroke-miterlimit:4;stroke-dasharray:none;-inkscape-stroke:hairline"
       d="M -1.88976,1022.36 H 115.276"
       id="path847" />
    <path
       d="m 122.83465,1029.9213 a 7.559055,7.559055 0 0 0 -7.55906,-7.5591"
       style="vector-effect:non-scaling-stroke;fill:none;stroke:#000000;stroke-width:0.0100158;stroke-miterlimit:4;stroke-dasharray:none;-inkscape-stroke:hairline"
       id="path849" />
    <path
       style="vector-effect:non-scaling-stroke;fill:none;stroke:#000000;stroke-width:0.0100158;stroke-miterlimit:4;stroke-dasharray:none;-inkscape-stroke:hairline"
       d="m 122.835,1029.92 v 94.49"
       id="path851" />
    <path
       d="m 115.27559,1131.9685 a 7.559055,7.559055 0 0 0 7.55906,-7.5591"
       style="vector-effect:non-scaling-stroke;fill:none;stroke:#000000;stroke-width:0.0100158;stroke-miterlimit:4;stroke-dasharray:none;-inkscape-stroke:hairline"
       id="path853" />
    <path
       style="vector-effect:non-scaling-stroke;fill:none;stroke:#000000;stroke-width:0.0100158;stroke-miterlimit:4;stroke-dasharray:none;-inkscape-stroke:hairline"
       d="M 115.276,1131.97 H -1.88976"
       id="path855" />
    <path
       d="m -9.448819,1124.4094 a 7.559055,7.559055 0 0 0 7.559055,7.5591"
       style="vector-effect:non-scaling-stroke;fill:none;stroke:#000000;stroke-width:0.0100158;stroke-miterlimit:4;stroke-dasharray:none;-inkscape-stroke:hairline"
       id="path857" />
    <path
       style="vector-effect:non-scaling-stroke;fill:none;stroke:#000000;stroke-width:0.0100158;stroke-miterlimit:4;stroke-dasharray:none;-inkscape-stroke:hairline"
       d="m -9.44882,1124.41 v -94.49"
       id="path859" />
  </g>
</svg>
